<svg id="Livello_1" data-name="Livello 1" xmlns="http://www.w3.org/2000/svg" viewBox="0 0 410.2 512.31">
    <defs>
        <style>
        .cls-1{font-size:460.33px;font-family:Rockwell;}
        .cls-1,.cls-2{fill:#0B5ED7;}
        .cls-3{fill:#F8F9FA;}   
        </style>
    </defs>
    <text class="cls-1" transform="translate(0 386.44)">i</text>
    <circle class="cls-2" cx="294.81" cy="270.12" r="101.42"/>
    <circle class="cls-3" cx="294.81" cy="270.12" r="77.45"/>
    <circle class="cls-2" cx="294.81" cy="270.12" r="18.6"/>
    <rect class="cls-2" x="276.21" y="154.74" width="37.19" height="27.94"/>
    <rect class="cls-2" x="276.21" y="357.58" width="37.19" height="27.94"/>
    <rect class="cls-2" x="428.53" y="256" width="37.19" height="27.94" transform="translate(666.2 -177.01) rotate(90)"/>
    <rect class="cls-2" x="225.7" y="256" width="37.19" height="27.94" transform="translate(463.36 25.83) rotate(90)"/>
    <rect class="cls-2" x="255.4" y="184.29" width="37.19" height="27.94" transform="translate(-110.84 251.97) rotate(-45)"/>
    <rect class="cls-2" x="398.83" y="327.71" width="37.19" height="27.94" transform="translate(-170.25 395.4) rotate(-45)"/>
    <rect class="cls-2" x="398.83" y="184.29" width="37.19" height="27.94" transform="translate(211.55 -236.94) rotate(45)"/>
    <rect class="cls-2" x="255.4" y="327.71" width="37.19" height="27.94" transform="translate(270.96 -93.51) rotate(45)"/>
</svg>